# xmcd CD database file
#
# Track frame offsets:
#	150
#	11323
#	22741
#	35653
#	53000
#	71689
#	88865
#	103296
#	125393
#	136306
#	158838
#	172436
#	190806
#	202238
#	221776
#	235649
#
# Disc length: 3322 seconds
#
# Revision: 0
# Processed by: cddbd v1.5.2PL0 Copyright (c) Steve Scherf et al.
# Submitted via: CDex 1.70beta2
#
DISCID=e50cf810
DTITLE=Ad Hoc_Orkester - The-History-Of-Slovene-Jazz
DYEAR=1900
DGENRE=Jazz
TTITLE0=Pod arkadami
TTITLE1=Invencija
TTITLE2=Sahara_Express
TTITLE3=Song
TTITLE4=Scherzo
TTITLE5=Recital
TTITLE6=Marcia
TTITLE7=Miles
TTITLE8=Mlin
TTITLE9=Jazz March
TTITLE10=Airways
TTITLE11=Tango
TTITLE12=Akvarel
TTITLE13=Filigran
TTITLE14=Go Jojo
TTITLE15=A_Theme_to_the_West
EXTD=
EXTT0=
EXTT1=
EXTT2=
EXTT3=
EXTT4=
EXTT5=
EXTT6=
EXTT7=
EXTT8=
EXTT9=
EXTT10=
EXTT11=
EXTT12=
EXTT13=
EXTT14=
EXTT15=
PLAYORDER=
